<svg version="1.1" id="Layer_1" xmlns="http://www.w3.org/2000/svg" xmlns:xlink="http://www.w3.org/1999/xlink" x="0px" y="0px" width="32px" height="32px" viewBox="0 0 32 32" enable-background="new 0 0 32 32" xml:space="preserve">
  <g id="icon">
    <path d="M30,29.5H2c-0.2761,0,-0.5,-0.2239,-0.5,-0.5V6.5h29v22.5C30.5,29.2761,30.2761,29.5,30,29.5z" fill="#FFFFFF" stroke="#217346" stroke-width="1" stroke-miterlimit="10"/>
    <path d="M31,7H1V3.4c0,-0.7732,0.6268,-1.4,1.4,-1.4h27.2c0.7732,0,1.4,0.6268,1.4,1.4V7z" fill="#217346"/>
    <rect x="5.5" y="9.5" width="5" height="5" fill="#E6E7E8" stroke="#797979" stroke-width="1" stroke-miterlimit="10" stroke-linejoin="round"/>
    <line x1="6" y1="16.5" x2="10" y2="16.5" fill="none" stroke="#797979" stroke-width="1" stroke-linecap="round" stroke-miterlimit="10" stroke-linejoin="round"/>
    <rect x="13.5" y="9.5" width="5" height="5" fill="#E6E7E8" stroke="#797979" stroke-width="1" stroke-miterlimit="10" stroke-linejoin="round"/>
    <line x1="14" y1="16.5" x2="18" y2="16.5" fill="none" stroke="#797979" stroke-width="1" stroke-linecap="round" stroke-miterlimit="10" stroke-linejoin="round"/>
    <rect x="21.5" y="9.5" width="5" height="5" fill="#E6E7E8" stroke="#797979" stroke-width="1" stroke-miterlimit="10" stroke-linejoin="round"/>
    <line x1="22" y1="16.5" x2="26" y2="16.5" fill="none" stroke="#797979" stroke-width="1" stroke-linecap="round" stroke-miterlimit="10" stroke-linejoin="round"/>
    <rect x="5.5" y="19.5" width="5" height="5" fill="#E6E7E8" stroke="#797979" stroke-width="1" stroke-miterlimit="10" stroke-linejoin="round"/>
    <line x1="6" y1="26.5" x2="10" y2="26.5" fill="none" stroke="#797979" stroke-width="1" stroke-linecap="round" stroke-miterlimit="10" stroke-linejoin="round"/>
    <rect x="13.5" y="19.5" width="5" height="5" fill="#E6E7E8" stroke="#797979" stroke-width="1" stroke-miterlimit="10" stroke-linejoin="round"/>
    <line x1="14" y1="26.5" x2="18" y2="26.5" fill="none" stroke="#797979" stroke-width="1" stroke-linecap="round" stroke-miterlimit="10" stroke-linejoin="round"/>
  </g>
</svg>